{
	"asset":{
		"generator":"Khronos glTF Blender I/O v3.5.30",
		"version":"2.0"
	},
	"extensionsUsed":[
		"KHR_materials_unlit"
	],
	"scene":0,
	"scenes":[
		{
			"name":"Scene",
			"nodes":[
				0
			]
		}
	],
	"nodes":[
		{
			"mesh":0,
			"name":"Object_2"
		}
	],
	"materials":[
		{
			"doubleSided":true,
			"extensions":{
				"KHR_materials_unlit":{}
			},
			"name":"Baked_Material",
			"pbrMetallicRoughness":{
				"baseColorTexture":{
					"index":0,
					"texCoord":0
				},
				"metallicFactor":0,
				"roughnessFactor":0.9
			}
		},
		{
			"doubleSided":true,
			"extensions":{
				"KHR_materials_unlit":{}
			},
			"name":"Material.002",
			"pbrMetallicRoughness":{
				"baseColorFactor":[
					0.02034241147339344,
					0.024261247366666794,
					0,
					1
				],
				"metallicFactor":0,
				"roughnessFactor":0.9
			}
		}
	],
	"meshes":[
		{
			"name":"Object_0",
			"primitives":[
				{
					"attributes":{
						"POSITION":0,
						"TEXCOORD_0":1,
						"NORMAL":2
					},
					"indices":3,
					"material":0
				},
				{
					"attributes":{
						"POSITION":4,
						"TEXCOORD_0":5,
						"NORMAL":6
					},
					"indices":7,
					"material":1
				}
			]
		}
	],
	"textures":[
		{
			"sampler":0,
			"source":0
		}
	],
	"images":[
		{
			"bufferView":4,
			"mimeType":"image/png",
			"name":"Baked_Material_baseColor"
		}
	],
	"accessors":[
		{
			"bufferView":0,
			"componentType":5126,
			"count":1513,
			"max":[
				1.356951117515564,
				0.5196279883384705,
				1.3809131383895874
			],
			"min":[
				-1.2058038711547852,
				-0.0227532796561718,
				-1.1855268478393555
			],
			"type":"VEC3"
		},
		{
			"bufferView":1,
			"componentType":5126,
			"count":1513,
			"type":"VEC2"
		},
		{
			"bufferView":2,
			"componentType":5126,
			"count":1513,
			"type":"VEC3"
		},
		{
			"bufferView":3,
			"componentType":5123,
			"count":3309,
			"type":"SCALAR"
		},
		{
			"bufferView":5,
			"componentType":5126,
			"count":194,
			"max":[
				1.1040631532669067,
				0.31560513377189636,
				1.1922167539596558
			],
			"min":[
				-0.9965840578079224,
				0.086967334151268,
				-0.9110026359558105
			],
			"type":"VEC3"
		},
		{
			"bufferView":6,
			"componentType":5126,
			"count":194,
			"type":"VEC2"
		},
		{
			"bufferView":7,
			"componentType":5126,
			"count":194,
			"type":"VEC3"
		},
		{
			"bufferView":8,
			"componentType":5123,
			"count":372,
			"type":"SCALAR"
		}
	],
	"bufferViews":[
		{
			"buffer":0,
			"byteLength":18156,
			"byteOffset":0,
			"target":34962
		},
		{
			"buffer":0,
			"byteLength":12104,
			"byteOffset":18156,
			"target":34962
		},
		{
			"buffer":0,
			"byteLength":18156,
			"byteOffset":30260,
			"target":34962
		},
		{
			"buffer":0,
			"byteLength":6618,
			"byteOffset":48416,
			"target":34963
		},
		{
			"buffer":0,
			"byteLength":853554,
			"byteOffset":55036
		},
		{
			"buffer":0,
			"byteLength":2328,
			"byteOffset":908592,
			"target":34962
		},
		{
			"buffer":0,
			"byteLength":1552,
			"byteOffset":910920,
			"target":34962
		},
		{
			"buffer":0,
			"byteLength":2328,
			"byteOffset":912472,
			"target":34962
		},
		{
			"buffer":0,
			"byteLength":744,
			"byteOffset":914800,
			"target":34963
		}
	],
	"samplers":[
		{
			"magFilter":9729,
			"minFilter":9987
		}
	],
	"buffers":[
		{
			"byteLength":915544,
			"uri":"data:application/octet-stream;base64,"
		}
	]
}
