{
	"asset":{
		"generator":"Khronos glTF Blender I/O v3.5.30",
		"version":"2.0"
	},
	"scene":0,
	"scenes":[
		{
			"name":"Scene",
			"nodes":[
				0
			]
		}
	],
	"nodes":[
		{
			"mesh":0,
			"name":"Object_6"
		}
	],
	"materials":[
		{
			"alphaMode":"BLEND",
			"doubleSided":true,
			"name":"Wheatgrass_Mat.001",
			"normalTexture":{
				"index":0
			},
			"pbrMetallicRoughness":{
				"baseColorTexture":{
					"index":1
				},
				"metallicFactor":0,
				"roughnessFactor":0.5527859926223755
			}
		}
	],
	"meshes":[
		{
			"name":"Object_1",
			"primitives":[
				{
					"attributes":{
						"POSITION":0,
						"TEXCOORD_0":1,
						"TEXCOORD_1":2,
						"TEXCOORD_2":3,
						"NORMAL":4
					},
					"indices":5,
					"material":0
				}
			]
		}
	],
	"textures":[
		{
			"sampler":0,
			"source":0
		},
		{
			"sampler":0,
			"source":1
		}
	],
	"images":[
		{
			"bufferView":6,
			"mimeType":"image/png",
			"name":"Wheatgrass_Mat_normal"
		},
		{
			"bufferView":7,
			"mimeType":"image/png",
			"name":"Wheatgrass_Mat_baseColor"
		}
	],
	"accessors":[
		{
			"bufferView":0,
			"componentType":5126,
			"count":802,
			"max":[
				0.2338353842496872,
				0.2160893678665161,
				0.2515702247619629
			],
			"min":[
				-0.24949076771736145,
				-0.000941077945753932,
				-0.23962853848934174
			],
			"type":"VEC3"
		},
		{
			"bufferView":1,
			"componentType":5126,
			"count":802,
			"type":"VEC2"
		},
		{
			"bufferView":2,
			"componentType":5126,
			"count":802,
			"type":"VEC2"
		},
		{
			"bufferView":3,
			"componentType":5126,
			"count":802,
			"type":"VEC2"
		},
		{
			"bufferView":4,
			"componentType":5126,
			"count":802,
			"type":"VEC3"
		},
		{
			"bufferView":5,
			"componentType":5123,
			"count":1200,
			"type":"SCALAR"
		}
	],
	"bufferViews":[
		{
			"buffer":0,
			"byteLength":9624,
			"byteOffset":0,
			"target":34962
		},
		{
			"buffer":0,
			"byteLength":6416,
			"byteOffset":9624,
			"target":34962
		},
		{
			"buffer":0,
			"byteLength":6416,
			"byteOffset":16040,
			"target":34962
		},
		{
			"buffer":0,
			"byteLength":6416,
			"byteOffset":22456,
			"target":34962
		},
		{
			"buffer":0,
			"byteLength":9624,
			"byteOffset":28872,
			"target":34962
		},
		{
			"buffer":0,
			"byteLength":2400,
			"byteOffset":38496,
			"target":34963
		},
		{
			"buffer":0,
			"byteLength":187332,
			"byteOffset":40896
		},
		{
			"buffer":0,
			"byteLength":324007,
			"byteOffset":228228
		}
	],
	"samplers":[
		{
			"magFilter":9729,
			"minFilter":9987
		}
	],
	"buffers":[
		{
			"byteLength":552236,
			"uri":"data:application/octet-stream;base64,"
		}
	]
}
