{
	"asset":{
		"generator":"Khronos glTF Blender I/O v3.5.30",
		"version":"2.0"
	},
	"scene":0,
	"scenes":[
		{
			"name":"Scene",
			"nodes":[
				0
			]
		}
	],
	"nodes":[
		{
			"mesh":0,
			"name":"leaves_0",
			"rotation":[
				0,
				0,
				-0.5695884823799133,
				0.8219299912452698
			],
			"scale":[
				0.28143322467803955,
				0.2590431571006775,
				0.2590431571006775
			],
			"translation":[
				0,
				16.84494400024414,
				-39.76390075683594
			]
		}
	],
	"materials":[
		{
			"alphaMode":"BLEND",
			"doubleSided":true,
			"name":"Leaves",
			"normalTexture":{
				"index":0
			},
			"pbrMetallicRoughness":{
				"baseColorTexture":{
					"index":1
				},
				"metallicFactor":0,
				"roughnessFactor":0.8065930008888245
			}
		}
	],
	"meshes":[
		{
			"name":"leaves_0",
			"primitives":[
				{
					"attributes":{
						"POSITION":0,
						"TEXCOORD_0":1,
						"NORMAL":2
					},
					"indices":3,
					"material":0
				}
			]
		}
	],
	"textures":[
		{
			"sampler":0,
			"source":0
		},
		{
			"sampler":0,
			"source":1
		}
	],
	"images":[
		{
			"bufferView":4,
			"mimeType":"image/png",
			"name":"Leaves_normal"
		},
		{
			"bufferView":5,
			"mimeType":"image/png",
			"name":"Leaves_baseColor"
		}
	],
	"accessors":[
		{
			"bufferView":0,
			"componentType":5126,
			"count":1280,
			"max":[
				131.756103515625,
				151.6320343017578,
				344.140380859375
			],
			"min":[
				-113.21929931640625,
				-136.60983276367188,
				-70.83978271484375
			],
			"type":"VEC3"
		},
		{
			"bufferView":1,
			"componentType":5126,
			"count":1280,
			"type":"VEC2"
		},
		{
			"bufferView":2,
			"componentType":5126,
			"count":1280,
			"type":"VEC3"
		},
		{
			"bufferView":3,
			"componentType":5123,
			"count":1914,
			"type":"SCALAR"
		}
	],
	"bufferViews":[
		{
			"buffer":0,
			"byteLength":15360,
			"byteOffset":0,
			"target":34962
		},
		{
			"buffer":0,
			"byteLength":10240,
			"byteOffset":15360,
			"target":34962
		},
		{
			"buffer":0,
			"byteLength":15360,
			"byteOffset":25600,
			"target":34962
		},
		{
			"buffer":0,
			"byteLength":3828,
			"byteOffset":40960,
			"target":34963
		},
		{
			"buffer":0,
			"byteLength":795582,
			"byteOffset":44788
		},
		{
			"buffer":0,
			"byteLength":630167,
			"byteOffset":840372
		}
	],
	"samplers":[
		{
			"magFilter":9729,
			"minFilter":9987
		}
	],
	"buffers":[
		{
			"byteLength":1470540,
			"uri":"data:application/octet-stream;base64,"
		}
	]
}
