{
	"asset":{
		"generator":"Khronos glTF Blender I/O v3.5.30",
		"version":"2.0"
	},
	"scene":0,
	"scenes":[
		{
			"name":"Scene",
			"nodes":[
				0
			]
		}
	],
	"nodes":[
		{
			"mesh":0,
			"name":"Bush3_lambert1_0"
		}
	],
	"materials":[
		{
			"alphaMode":"BLEND",
			"doubleSided":true,
			"name":"lambert1",
			"occlusionTexture":{
				"index":0
			},
			"pbrMetallicRoughness":{}
		}
	],
	"meshes":[
		{
			"name":"Bush3_lambert1_0",
			"primitives":[
				{
					"attributes":{
						"POSITION":0,
						"TEXCOORD_0":1,
						"NORMAL":2
					},
					"indices":3,
					"material":0
				}
			]
		}
	],
	"textures":[
		{
			"sampler":0,
			"source":0
		}
	],
	"images":[
		{
			"bufferView":4,
			"mimeType":"image/png",
			"name":"lambert1_occlusion"
		}
	],
	"accessors":[
		{
			"bufferView":0,
			"componentType":5126,
			"count":1290,
			"max":[
				0.9329832792282104,
				0.8804399967193604,
				0.6505485773086548
			],
			"min":[
				-0.8932795524597168,
				-0.07187402248382568,
				-0.6608206629753113
			],
			"type":"VEC3"
		},
		{
			"bufferView":1,
			"componentType":5126,
			"count":1290,
			"type":"VEC2"
		},
		{
			"bufferView":2,
			"componentType":5126,
			"count":1290,
			"type":"VEC3"
		},
		{
			"bufferView":3,
			"componentType":5123,
			"count":3540,
			"type":"SCALAR"
		}
	],
	"bufferViews":[
		{
			"buffer":0,
			"byteLength":15480,
			"byteOffset":0,
			"target":34962
		},
		{
			"buffer":0,
			"byteLength":10320,
			"byteOffset":15480,
			"target":34962
		},
		{
			"buffer":0,
			"byteLength":15480,
			"byteOffset":25800,
			"target":34962
		},
		{
			"buffer":0,
			"byteLength":7080,
			"byteOffset":41280,
			"target":34963
		},
		{
			"buffer":0,
			"byteLength":611869,
			"byteOffset":48360
		}
	],
	"samplers":[
		{
			"magFilter":9729,
			"minFilter":9987
		}
	],
	"buffers":[
		{
			"byteLength":660232,
			"uri":"data:application/octet-stream;base64,"
		}
	]
}
