{
	"asset":{
		"generator":"Khronos glTF Blender I/O v3.5.30",
		"version":"2.0"
	},
	"extensionsUsed":[
		"KHR_materials_specular"
	],
	"scene":0,
	"scenes":[
		{
			"name":"Scene",
			"nodes":[
				0
			]
		}
	],
	"nodes":[
		{
			"mesh":0,
			"name":"Plane.001_Tree_0"
		}
	],
	"materials":[
		{
			"alphaCutoff":0.0045714424923062325,
			"alphaMode":"MASK",
			"doubleSided":true,
			"extensions":{
				"KHR_materials_specular":{
					"specularColorTexture":{
						"index":0
					}
				}
			},
			"name":"Tree",
			"pbrMetallicRoughness":{
				"baseColorTexture":{
					"index":1
				},
				"metallicFactor":0,
				"roughnessFactor":0.8211145401000977
			}
		}
	],
	"meshes":[
		{
			"name":"Plane.001_Tree_0",
			"primitives":[
				{
					"attributes":{
						"POSITION":0,
						"TEXCOORD_0":1,
						"NORMAL":2
					},
					"indices":3,
					"material":0
				}
			]
		}
	],
	"textures":[
		{
			"sampler":0,
			"source":0
		},
		{
			"sampler":0,
			"source":1
		}
	],
	"images":[
		{
			"bufferView":4,
			"mimeType":"image/png",
			"name":"Image"
		},
		{
			"bufferView":5,
			"mimeType":"image/png",
			"name":"Tree_baseColor"
		}
	],
	"accessors":[
		{
			"bufferView":0,
			"componentType":5126,
			"count":4005,
			"max":[
				3.701111316680908,
				9.006196975708008,
				3.912775754928589
			],
			"min":[
				-4.273725509643555,
				-0.11888265609741211,
				-3.4537014961242676
			],
			"type":"VEC3"
		},
		{
			"bufferView":1,
			"componentType":5126,
			"count":4005,
			"type":"VEC2"
		},
		{
			"bufferView":2,
			"componentType":5126,
			"count":4005,
			"type":"VEC3"
		},
		{
			"bufferView":3,
			"componentType":5123,
			"count":5085,
			"type":"SCALAR"
		}
	],
	"bufferViews":[
		{
			"buffer":0,
			"byteLength":48060,
			"byteOffset":0,
			"target":34962
		},
		{
			"buffer":0,
			"byteLength":32040,
			"byteOffset":48060,
			"target":34962
		},
		{
			"buffer":0,
			"byteLength":48060,
			"byteOffset":80100,
			"target":34962
		},
		{
			"buffer":0,
			"byteLength":10170,
			"byteOffset":128160,
			"target":34963
		},
		{
			"buffer":0,
			"byteLength":2974,
			"byteOffset":138332
		},
		{
			"buffer":0,
			"byteLength":32190,
			"byteOffset":141308
		}
	],
	"samplers":[
		{
			"magFilter":9728,
			"minFilter":9984
		}
	],
	"buffers":[
		{
			"byteLength":173500,
			"uri":"data:application/octet-stream;base64,"
		}
	]
}
